<svg width="954" height="838" viewBox="0 0 954 838" fill="none" xmlns="http://www.w3.org/2000/svg">
<path d="M0 115C0 51.4873 51.4873 0 115 0H839C902.513 0 954 51.4873 954 115V723C954 786.513 902.513 838 839 838H115C51.4873 838 0 786.513 0 723V115Z" fill="white"/>
<path d="M161.397 379.385V107H274.756L319.348 255.28L358.825 107.951H478.911V380.459H395.1V181.677L339.226 380.459H282.815L225.867 180.066L229.627 379.385H161.397Z" fill="#054DA2"/>
<path d="M531.561 108.611V393.892H630.414C703.648 393.909 752.221 369.833 775.222 337.191C811.872 285.18 813.197 211.983 773.323 162.336C736.542 116.539 682.512 108.611 623.431 108.611H531.561ZM597.105 160.188L640.085 160.726C695.984 161.425 710.228 177.664 719.093 192.709C747.762 241.366 731.919 288.796 721.746 306.855C710.555 326.723 691.111 342.853 637.398 342.853H597.105V160.188Z" fill="#ED1C24"/>
<path d="M76.8438 443.81V409.05H115.213V444.38L76.8438 443.81Z" fill="#054DA2"/>
<path d="M135.878 408.48H320.691V444.392H135.878V408.48Z" fill="#054DA2"/>
<path d="M663.085 443.24V408.48H701.454V443.81L663.085 443.24Z" fill="#2E3192"/>
<path d="M732.756 409.43H883.531V443.214H732.756V409.43Z" fill="#2E3192"/>
<path d="M581.76 410.376V680.627H495.879C432.254 680.64 390.055 657.836 370.072 626.914C338.231 577.642 337.08 508.302 371.722 461.271C403.677 417.887 450.616 410.376 501.945 410.376H581.76ZM524.817 459.236L487.477 459.745C438.912 460.407 426.537 475.792 418.835 490.044C393.928 536.137 407.693 581.069 416.531 598.176C426.253 616.997 443.146 632.277 489.81 632.277H524.817V459.236Z" fill="#ED1C24"/>
<path d="M814.306 480.834C810.407 480.887 806.297 481.053 801.976 481.337C787.882 482.264 772.616 486.385 759.474 492.94C747.532 498.896 736.816 510.767 740.647 523.982C743.455 533.666 766.862 535.633 771.172 520.949C782.417 482.647 813.698 493.234 824.897 497.579C842.086 504.248 849.039 535.893 835.991 555.137C828.321 566.451 809.039 573.173 794.158 579.386C778.21 586.046 760.932 593.939 746.682 607.256C727.468 628.926 730.374 654.004 756.667 670.573C778.567 684.374 818.377 685.425 839.286 644.203C840.099 642.601 841.745 642.552 841.757 644.014C841.872 657.923 844.037 667.302 847.464 675.946C859.704 674.489 871.438 673.706 882.921 673.26C852.423 631.703 884.158 512.343 864.655 495.431C858.509 485.687 841.597 480.465 814.306 480.834ZM839.673 571.988L840.344 608.253C840.844 635.259 829.571 649.785 811.198 653.382C793.562 656.834 766.561 651.258 768.218 623.027C769.702 597.744 813.516 583.323 839.673 571.988Z" fill="#054DA2"/>
<path d="M160.323 489.252L197.661 485.491L199.273 512.354C211.899 496.994 225.115 482.75 255.953 481.462C287.781 480.133 299.168 496.683 302.693 520.412C306.617 546.822 306.087 568.393 305.917 589.986C305.572 633.777 306.204 671.746 314.244 673.797H274.488L276.906 587.568C277.044 563.074 281.807 533.99 269.921 514.503C257.767 494.576 211.884 502.259 204.914 520.95C200.15 533.725 199.583 544.807 198.467 556.945C195.751 586.501 197.93 645.985 197.93 645.985C197.807 666.647 202.964 668.808 206.257 673.797H159.785C165.757 668.396 167.576 659.326 167.576 647.472V518.263C167.576 505.107 164.385 495.962 160.323 489.252Z" fill="#054DA2"/>
<path d="M72.855 485.218C85.5952 486.038 99.1194 484.898 113.883 480.66C108.149 517.687 112.361 591.257 111.604 648.952C111.455 660.291 113.687 668.396 119.202 673.645H72.4751C75.7433 668.388 80.0642 664.948 80.0729 651.991C80.1153 589.267 87.8485 497.539 72.855 485.218Z" fill="#054DA2"/>
<path d="M659.36 485.965C672.1 486.786 685.624 485.646 700.388 481.407C694.654 518.434 698.865 592.004 698.109 649.699C697.96 661.039 700.192 669.143 705.707 674.392H658.98C662.248 669.135 666.569 665.695 666.578 652.738C666.622 590.015 674.353 498.286 659.36 485.965Z" fill="#054DA2"/>
<path d="M883.62 695.613H70.8903V731.513H883.62V695.613Z" fill="#054DA2"/>
</svg>
